<svg width="471" height="99" viewBox="0 0 471 99" fill="none" xmlns="http://www.w3.org/2000/svg">
<circle cx="45" cy="53" r="38.5" stroke="black" stroke-width="13"/>
<circle cx="96" cy="8" r="8" fill="black"/>
<path d="M107.034 68V33.0909H120.807C123.455 33.0909 125.71 33.5966 127.574 34.608C129.438 35.608 130.858 37 131.835 38.7841C132.824 40.5568 133.318 42.6023 133.318 44.9205C133.318 47.2386 132.818 49.2841 131.818 51.0568C130.818 52.8295 129.369 54.2102 127.472 55.1989C125.585 56.1875 123.301 56.6818 120.619 56.6818H111.841V50.767H119.426C120.847 50.767 122.017 50.5227 122.938 50.0341C123.869 49.5341 124.563 48.8466 125.017 47.9716C125.483 47.0852 125.716 46.0682 125.716 44.9205C125.716 43.7614 125.483 42.75 125.017 41.8864C124.563 41.0114 123.869 40.3352 122.938 39.858C122.006 39.3693 120.824 39.125 119.392 39.125H114.415V68H107.034ZM145.237 52.8636V68H137.976V33.0909H145.033V46.4375H145.339C145.93 44.892 146.885 43.6818 148.203 42.8068C149.521 41.9205 151.175 41.4773 153.163 41.4773C154.982 41.4773 156.567 41.875 157.919 42.6705C159.283 43.4545 160.339 44.5852 161.089 46.0625C161.851 47.5284 162.226 49.2841 162.214 51.3295V68H154.953V52.625C154.964 51.0114 154.555 49.7557 153.726 48.858C152.908 47.9602 151.76 47.5114 150.283 47.5114C149.294 47.5114 148.419 47.7216 147.658 48.142C146.908 48.5625 146.317 49.1761 145.885 49.983C145.464 50.7784 145.249 51.7386 145.237 52.8636ZM167.929 68V41.8182H174.969V46.3864H175.241C175.719 44.7614 176.52 43.5341 177.645 42.7045C178.77 41.8636 180.065 41.4432 181.531 41.4432C181.895 41.4432 182.287 41.4659 182.707 41.5114C183.128 41.5568 183.497 41.6193 183.815 41.6989V48.142C183.474 48.0398 183.003 47.9489 182.401 47.8693C181.798 47.7898 181.247 47.75 180.747 47.75C179.679 47.75 178.724 47.983 177.884 48.4489C177.054 48.9034 176.395 49.5398 175.906 50.358C175.429 51.1761 175.19 52.1193 175.19 53.1875V68H167.929ZM198.18 68.5114C195.533 68.5114 193.243 67.9489 191.311 66.8239C189.391 65.6875 187.908 64.108 186.862 62.0852C185.817 60.0511 185.294 57.6932 185.294 55.0114C185.294 52.3068 185.817 49.9432 186.862 47.9205C187.908 45.8864 189.391 44.3068 191.311 43.1818C193.243 42.0455 195.533 41.4773 198.18 41.4773C200.828 41.4773 203.112 42.0455 205.033 43.1818C206.964 44.3068 208.453 45.8864 209.499 47.9205C210.544 49.9432 211.067 52.3068 211.067 55.0114C211.067 57.6932 210.544 60.0511 209.499 62.0852C208.453 64.108 206.964 65.6875 205.033 66.8239C203.112 67.9489 200.828 68.5114 198.18 68.5114ZM198.214 62.8864C199.419 62.8864 200.425 62.5455 201.232 61.8636C202.038 61.1705 202.646 60.2273 203.055 59.0341C203.476 57.8409 203.686 56.483 203.686 54.9602C203.686 53.4375 203.476 52.0795 203.055 50.8864C202.646 49.6932 202.038 48.75 201.232 48.0568C200.425 47.3636 199.419 47.017 198.214 47.017C196.999 47.017 195.976 47.3636 195.146 48.0568C194.328 48.75 193.709 49.6932 193.288 50.8864C192.879 52.0795 192.675 53.4375 192.675 54.9602C192.675 56.483 192.879 57.8409 193.288 59.0341C193.709 60.2273 194.328 61.1705 195.146 61.8636C195.976 62.5455 196.999 62.8864 198.214 62.8864ZM223.05 52.8636V68H215.788V41.8182H222.709V46.4375H223.016C223.595 44.9148 224.567 43.7102 225.93 42.8239C227.294 41.9261 228.947 41.4773 230.891 41.4773C232.709 41.4773 234.294 41.875 235.646 42.6705C236.999 43.4659 238.05 44.6023 238.8 46.0795C239.55 47.5455 239.925 49.2955 239.925 51.3295V68H232.663V52.625C232.675 51.0227 232.266 49.7727 231.436 48.875C230.607 47.9659 229.464 47.5114 228.01 47.5114C227.033 47.5114 226.169 47.7216 225.419 48.142C224.68 48.5625 224.101 49.1761 223.68 49.983C223.271 50.7784 223.061 51.7386 223.05 52.8636ZM257.58 68.5114C254.886 68.5114 252.568 67.9659 250.625 66.875C248.693 65.7727 247.205 64.2159 246.159 62.2045C245.114 60.1818 244.591 57.7898 244.591 55.0284C244.591 52.3352 245.114 49.9716 246.159 47.9375C247.205 45.9034 248.676 44.3182 250.574 43.1818C252.483 42.0455 254.722 41.4773 257.29 41.4773C259.017 41.4773 260.625 41.7557 262.114 42.3125C263.614 42.858 264.92 43.6818 266.034 44.7841C267.159 45.8864 268.034 47.2727 268.659 48.9432C269.284 50.6023 269.597 52.5455 269.597 54.7727V56.767H247.489V52.267H262.761C262.761 51.2216 262.534 50.2955 262.08 49.4886C261.625 48.6818 260.994 48.0511 260.188 47.5966C259.392 47.1307 258.466 46.8977 257.409 46.8977C256.307 46.8977 255.33 47.1534 254.477 47.6648C253.636 48.1648 252.977 48.8409 252.5 49.6932C252.023 50.5341 251.778 51.4716 251.767 52.5057V56.7841C251.767 58.0795 252.006 59.1989 252.483 60.142C252.972 61.0852 253.659 61.8125 254.545 62.3239C255.432 62.8352 256.483 63.0909 257.699 63.0909C258.506 63.0909 259.244 62.9773 259.915 62.75C260.585 62.5227 261.159 62.1818 261.636 61.7273C262.114 61.2727 262.477 60.7159 262.727 60.0568L269.443 60.5C269.102 62.1136 268.403 63.5227 267.347 64.7273C266.301 65.9205 264.949 66.8523 263.29 67.5227C261.642 68.1818 259.739 68.5114 257.58 68.5114ZM274.335 68V41.8182H281.256V46.4375H281.562C282.108 44.9034 283.017 43.6932 284.29 42.8068C285.562 41.9205 287.085 41.4773 288.858 41.4773C290.653 41.4773 292.182 41.9261 293.443 42.8239C294.705 43.7102 295.545 44.9148 295.966 46.4375H296.239C296.773 44.9375 297.739 43.7386 299.136 42.8409C300.545 41.9318 302.21 41.4773 304.131 41.4773C306.574 41.4773 308.557 42.2557 310.08 43.8125C311.614 45.358 312.381 47.5511 312.381 50.392V68H305.136V51.8239C305.136 50.3693 304.75 49.2784 303.977 48.5511C303.205 47.8239 302.239 47.4602 301.08 47.4602C299.761 47.4602 298.733 47.8807 297.994 48.7216C297.256 49.5511 296.886 50.6477 296.886 52.0114V68H289.847V51.6705C289.847 50.3864 289.477 49.3636 288.739 48.6023C288.011 47.8409 287.051 47.4602 285.858 47.4602C285.051 47.4602 284.324 47.6648 283.676 48.0739C283.04 48.4716 282.534 49.0341 282.159 49.7614C281.784 50.4773 281.597 51.3182 281.597 52.2841V68H274.335ZM325.582 68.4943C323.912 68.4943 322.423 68.2045 321.116 67.625C319.81 67.0341 318.776 66.1648 318.014 65.017C317.264 63.858 316.889 62.4148 316.889 60.6875C316.889 59.233 317.156 58.0114 317.69 57.0227C318.224 56.0341 318.952 55.2386 319.872 54.6364C320.793 54.0341 321.838 53.5795 323.009 53.2727C324.19 52.9659 325.429 52.75 326.724 52.625C328.247 52.4659 329.474 52.3182 330.406 52.1818C331.338 52.0341 332.014 51.8182 332.435 51.5341C332.855 51.25 333.065 50.8295 333.065 50.2727V50.1705C333.065 49.0909 332.724 48.2557 332.043 47.6648C331.372 47.0739 330.418 46.7784 329.179 46.7784C327.872 46.7784 326.832 47.0682 326.06 47.6477C325.287 48.2159 324.776 48.9318 324.526 49.7955L317.81 49.25C318.151 47.6591 318.821 46.2841 319.821 45.125C320.821 43.9545 322.111 43.0568 323.69 42.4318C325.281 41.7955 327.122 41.4773 329.213 41.4773C330.668 41.4773 332.06 41.6477 333.389 41.9886C334.73 42.3295 335.918 42.858 336.952 43.5739C337.997 44.2898 338.821 45.2102 339.423 46.3352C340.026 47.4489 340.327 48.7841 340.327 50.3409V68H333.44V64.3693H333.236C332.815 65.1875 332.253 65.9091 331.548 66.5341C330.844 67.1477 329.997 67.6307 329.009 67.983C328.02 68.3239 326.878 68.4943 325.582 68.4943ZM327.662 63.483C328.73 63.483 329.673 63.2727 330.491 62.8523C331.31 62.4205 331.952 61.8409 332.418 61.1136C332.884 60.3864 333.116 59.5625 333.116 58.642V55.8636C332.889 56.0114 332.577 56.1477 332.179 56.2727C331.793 56.3864 331.355 56.4943 330.866 56.5966C330.378 56.6875 329.889 56.7727 329.401 56.8523C328.912 56.9205 328.469 56.983 328.071 57.0398C327.219 57.1648 326.474 57.3636 325.838 57.6364C325.202 57.9091 324.707 58.2784 324.355 58.7443C324.003 59.1989 323.827 59.767 323.827 60.4489C323.827 61.4375 324.185 62.1932 324.901 62.7159C325.628 63.2273 326.548 63.483 327.662 63.483ZM357.206 68V33.0909H364.587V61.9148H379.553V68H357.206ZM391.77 68.4943C390.099 68.4943 388.611 68.2045 387.304 67.625C385.997 67.0341 384.963 66.1648 384.202 65.017C383.452 63.858 383.077 62.4148 383.077 60.6875C383.077 59.233 383.344 58.0114 383.878 57.0227C384.412 56.0341 385.139 55.2386 386.06 54.6364C386.98 54.0341 388.026 53.5795 389.196 53.2727C390.378 52.9659 391.616 52.75 392.912 52.625C394.435 52.4659 395.662 52.3182 396.594 52.1818C397.526 52.0341 398.202 51.8182 398.622 51.5341C399.043 51.25 399.253 50.8295 399.253 50.2727V50.1705C399.253 49.0909 398.912 48.2557 398.23 47.6648C397.56 47.0739 396.605 46.7784 395.366 46.7784C394.06 46.7784 393.02 47.0682 392.247 47.6477C391.474 48.2159 390.963 48.9318 390.713 49.7955L383.997 49.25C384.338 47.6591 385.009 46.2841 386.009 45.125C387.009 43.9545 388.298 43.0568 389.878 42.4318C391.469 41.7955 393.31 41.4773 395.401 41.4773C396.855 41.4773 398.247 41.6477 399.577 41.9886C400.918 42.3295 402.105 42.858 403.139 43.5739C404.185 44.2898 405.009 45.2102 405.611 46.3352C406.213 47.4489 406.514 48.7841 406.514 50.3409V68H399.628V64.3693H399.423C399.003 65.1875 398.44 65.9091 397.736 66.5341C397.031 67.1477 396.185 67.6307 395.196 67.983C394.207 68.3239 393.065 68.4943 391.77 68.4943ZM393.849 63.483C394.918 63.483 395.861 63.2727 396.679 62.8523C397.497 62.4205 398.139 61.8409 398.605 61.1136C399.071 60.3864 399.304 59.5625 399.304 58.642V55.8636C399.077 56.0114 398.764 56.1477 398.366 56.2727C397.98 56.3864 397.543 56.4943 397.054 56.5966C396.565 56.6875 396.077 56.7727 395.588 56.8523C395.099 56.9205 394.656 56.983 394.259 57.0398C393.406 57.1648 392.662 57.3636 392.026 57.6364C391.389 57.9091 390.895 58.2784 390.543 58.7443C390.19 59.1989 390.014 59.767 390.014 60.4489C390.014 61.4375 390.372 62.1932 391.088 62.7159C391.815 63.2273 392.736 63.483 393.849 63.483ZM412.284 68V33.0909H419.545V46.2159H419.767C420.085 45.5114 420.545 44.7955 421.148 44.0682C421.761 43.3295 422.557 42.7159 423.534 42.2273C424.523 41.7273 425.75 41.4773 427.216 41.4773C429.125 41.4773 430.886 41.9773 432.5 42.9773C434.114 43.9659 435.403 45.4602 436.369 47.4602C437.335 49.4489 437.818 51.9432 437.818 54.9432C437.818 57.8636 437.347 60.3295 436.403 62.3409C435.472 64.3409 434.199 65.858 432.585 66.892C430.983 67.9148 429.188 68.4261 427.199 68.4261C425.79 68.4261 424.591 68.1932 423.602 67.7273C422.625 67.2614 421.824 66.6761 421.199 65.9716C420.574 65.2557 420.097 64.5341 419.767 63.8068H419.443V68H412.284ZM419.392 54.9091C419.392 56.4659 419.608 57.8239 420.04 58.983C420.472 60.142 421.097 61.0455 421.915 61.6932C422.733 62.3295 423.727 62.6477 424.898 62.6477C426.08 62.6477 427.08 62.3239 427.898 61.6761C428.716 61.017 429.335 60.108 429.756 58.9489C430.188 57.7784 430.403 56.4318 430.403 54.9091C430.403 53.3977 430.193 52.0682 429.773 50.9205C429.352 49.7727 428.733 48.875 427.915 48.2273C427.097 47.5795 426.091 47.2557 424.898 47.2557C423.716 47.2557 422.716 47.5682 421.898 48.1932C421.091 48.8182 420.472 49.7045 420.04 50.8523C419.608 52 419.392 53.3523 419.392 54.9091ZM464.447 49.2841L457.8 49.6932C457.686 49.125 457.442 48.6136 457.067 48.1591C456.692 47.6932 456.197 47.3239 455.584 47.0511C454.982 46.767 454.26 46.625 453.419 46.625C452.294 46.625 451.345 46.8636 450.572 47.3409C449.8 47.8068 449.413 48.4318 449.413 49.2159C449.413 49.8409 449.663 50.3693 450.163 50.8011C450.663 51.233 451.521 51.5795 452.737 51.8409L457.476 52.7955C460.021 53.3182 461.919 54.1591 463.169 55.3182C464.419 56.4773 465.044 58 465.044 59.8864C465.044 61.6023 464.538 63.108 463.527 64.4034C462.527 65.6989 461.152 66.7102 459.402 67.4375C457.663 68.1534 455.658 68.5114 453.385 68.5114C449.919 68.5114 447.158 67.7898 445.101 66.3466C443.055 64.892 441.857 62.9148 441.504 60.4148L448.646 60.0398C448.862 61.0966 449.385 61.9034 450.214 62.4602C451.044 63.0057 452.107 63.2784 453.402 63.2784C454.675 63.2784 455.697 63.0341 456.47 62.5455C457.254 62.0455 457.652 61.4034 457.663 60.6193C457.652 59.9602 457.374 59.4205 456.828 59C456.283 58.5682 455.442 58.2386 454.305 58.0114L449.771 57.108C447.214 56.5966 445.311 55.7102 444.061 54.4489C442.822 53.1875 442.203 51.5795 442.203 49.625C442.203 47.9432 442.658 46.4943 443.567 45.2784C444.487 44.0625 445.777 43.125 447.436 42.4659C449.107 41.8068 451.061 41.4773 453.3 41.4773C456.607 41.4773 459.209 42.1761 461.107 43.5739C463.016 44.9716 464.129 46.875 464.447 49.2841Z" fill="black"/>
</svg>
